<svg width="34" height="35" viewBox="0 0 34 35" fill="none" xmlns="http://www.w3.org/2000/svg">
<g clip-path="url(#clip0_8_19)">
<path d="M31.9317 9.59499C31.7634 8.92265 31.4207 8.30663 30.9381 7.80915C30.4555 7.31166 29.8502 6.95033 29.1833 6.76166C26.7467 6.16666 17 6.16666 17 6.16666C17 6.16666 7.25333 6.16666 4.81667 6.81832C4.14977 7.007 3.54447 7.36833 3.06191 7.86582C2.57935 8.3633 2.23662 8.97932 2.06833 9.65166C1.62239 12.1245 1.40425 14.6331 1.41667 17.1458C1.40077 19.6775 1.61892 22.2052 2.06833 24.6967C2.25386 25.3481 2.60427 25.9407 3.0857 26.4172C3.56714 26.8936 4.16333 27.2379 4.81667 27.4167C7.25333 28.0683 17 28.0683 17 28.0683C17 28.0683 26.7467 28.0683 29.1833 27.4167C29.8502 27.228 30.4555 26.8666 30.9381 26.3692C31.4207 25.8717 31.7634 25.2557 31.9317 24.5833C32.3742 22.1291 32.5923 19.6396 32.5833 17.1458C32.5992 14.6142 32.3811 12.0865 31.9317 9.59499Z" stroke="white" stroke-width="4" stroke-linecap="round" stroke-linejoin="round"/>
<path d="M13.8125 21.7783L21.9583 17.1458L13.8125 12.5133V21.7783Z" stroke="white" stroke-width="4" stroke-linecap="round" stroke-linejoin="round"/>
</g>
<defs>
<clipPath id="clip0_8_19">
<rect width="34" height="34" fill="white" transform="translate(0 0.5)"/>
</clipPath>
</defs>
</svg>
